<svg width="94" height="54" viewBox="0 0 94 54" fill="none" xmlns="http://www.w3.org/2000/svg">
<path d="M21.6218 5.86047L5.91858 41.7768H19.2352V29.6372H23.3704C24.8056 29.6372 26.0302 29.7193 26.8945 29.5535C28.9129 29.1667 29.4987 28.0808 29.7667 26.9841V21.0977H36.9038V27.9628H33.2978C31.235 28.2583 31.0044 31.0421 30.9852 31.958V41.7768H45.6075V5.86047H21.6218Z" fill="#93B7BE"/>
<path d="M72.8135 5.86047L88.5168 41.7768H75.2001V29.6372H71.065C69.6297 29.6372 68.4051 29.7193 67.5408 29.5535C65.5225 29.1667 64.9367 28.0808 64.6686 26.9841V21.0977H57.5316V27.9628H61.1375C63.2003 28.2583 63.431 31.0421 63.4501 31.958V41.7768H48.8279V5.86047H72.8135Z" fill="#E0D7CC"/>
<path d="M45.6074 34.9953C45.6074 34.9953 47.2611 32.05 48.8278 34.9953V12.7825C48.8278 12.7825 47.1741 17.2423 45.6074 12.7825" fill="#93B7BE"/>
<mask id="mask0_31_84" style="mask-type:luminance" maskUnits="userSpaceOnUse" x="48" y="5" width="41" height="37">
<path d="M72.8134 5.86047L88.5166 41.7768H75.2V29.6372H71.0648C69.6296 29.6372 68.405 29.7193 67.5407 29.5535C65.5223 29.1667 64.9366 28.0808 64.6685 26.9841V21.0977H57.5315V27.9628H61.1374C63.2002 28.2583 63.4308 31.0421 63.45 31.958V41.7768H48.8278V5.86047H72.8134Z" fill="white"/>
</mask>
<g mask="url(#mask0_31_84)">
<path d="M91.1374 9.29303H48.5719V10.0465H91.1374V9.29303Z" fill="#93B7BE"/>
<path d="M91.1374 12.893H48.5719V13.6465H91.1374V12.893Z" fill="#93B7BE"/>
<path d="M91.1243 16.555H48.5588V17.3085H91.1243V16.555Z" fill="#93B7BE"/>
<path d="M91.1374 20.2605H48.5719V21.014H91.1374V20.2605Z" fill="#93B7BE"/>
<path d="M91.1374 24.0279H48.5719V24.7814H91.1374V24.0279Z" fill="#93B7BE"/>
<path d="M91.1121 27.7007H48.5466V28.4542H91.1121V27.7007Z" fill="#93B7BE"/>
<path d="M90.9633 31.3116H48.3978V32.0651H90.9633V31.3116Z" fill="#93B7BE"/>
<path d="M90.9372 35.0196H48.3717V35.7731H90.9372V35.0196Z" fill="#93B7BE"/>
<path d="M90.9633 38.6791H48.3978V39.4326H90.9633V38.6791Z" fill="#93B7BE"/>
</g>
<path d="M52.7444 5.86047H51.9611V41.7768H52.7444V5.86047Z" fill="#F0816B"/>
</svg>
